<mxfile host="app.diagrams.net" modified="2024-02-28T03:25:11.789Z" agent="Mozilla/5.0 (Windows NT 10.0; Win64; x64) AppleWebKit/537.36 (KHTML, like Gecko) Chrome/120.0.0.0 Safari/537.36 Edg/120.0.0.0" etag="2_SZ2VgG5DVsTZWi6Dsp" version="23.1.7" type="github">
  <diagram name="第 1 页" id="rXNOSeB3cZZgPNsnbTGn">
    <mxGraphModel dx="2453" dy="1954" grid="1" gridSize="10" guides="1" tooltips="1" connect="1" arrows="1" fold="1" page="1" pageScale="1" pageWidth="827" pageHeight="1169" math="0" shadow="0">
      <root>
        <mxCell id="0" />
        <mxCell id="1" parent="0" />
        <mxCell id="n7YBA3tUE_IjKKzlbOG0-29" style="edgeStyle=orthogonalEdgeStyle;rounded=0;orthogonalLoop=1;jettySize=auto;html=1;exitX=0.5;exitY=1;exitDx=0;exitDy=0;entryX=0.5;entryY=0;entryDx=0;entryDy=0;" parent="1" source="Xr6l-xtnLtzktArldmb--2" target="Xr6l-xtnLtzktArldmb--4" edge="1">
          <mxGeometry relative="1" as="geometry" />
        </mxCell>
        <mxCell id="Xr6l-xtnLtzktArldmb--2" value="开始截图" style="rounded=1;whiteSpace=wrap;html=1;" parent="1" vertex="1">
          <mxGeometry x="70" y="-100" width="120" height="60" as="geometry" />
        </mxCell>
        <mxCell id="n7YBA3tUE_IjKKzlbOG0-30" style="edgeStyle=orthogonalEdgeStyle;rounded=0;orthogonalLoop=1;jettySize=auto;html=1;exitX=0.5;exitY=1;exitDx=0;exitDy=0;entryX=0.5;entryY=0;entryDx=0;entryDy=0;" parent="1" source="n7YBA3tUE_IjKKzlbOG0-64" target="n7YBA3tUE_IjKKzlbOG0-4" edge="1">
          <mxGeometry relative="1" as="geometry" />
        </mxCell>
        <mxCell id="Xr6l-xtnLtzktArldmb--4" value="最大化窗口, 截取整个屏幕,&lt;br&gt;隐藏弹窗，设置窗口优先级最高" style="rounded=0;whiteSpace=wrap;html=1;" parent="1" vertex="1">
          <mxGeometry x="70" y="-10" width="120" height="60" as="geometry" />
        </mxCell>
        <mxCell id="n7YBA3tUE_IjKKzlbOG0-7" style="edgeStyle=orthogonalEdgeStyle;rounded=0;orthogonalLoop=1;jettySize=auto;html=1;exitX=0.5;exitY=1;exitDx=0;exitDy=0;entryX=0.5;entryY=0;entryDx=0;entryDy=0;" parent="1" source="n7YBA3tUE_IjKKzlbOG0-1" target="n7YBA3tUE_IjKKzlbOG0-2" edge="1">
          <mxGeometry relative="1" as="geometry" />
        </mxCell>
        <mxCell id="n7YBA3tUE_IjKKzlbOG0-1" value="左键按下" style="rounded=0;whiteSpace=wrap;html=1;" parent="1" vertex="1">
          <mxGeometry x="70" y="330" width="120" height="60" as="geometry" />
        </mxCell>
        <mxCell id="n7YBA3tUE_IjKKzlbOG0-8" style="edgeStyle=orthogonalEdgeStyle;rounded=0;orthogonalLoop=1;jettySize=auto;html=1;exitX=0.5;exitY=1;exitDx=0;exitDy=0;entryX=0.5;entryY=0;entryDx=0;entryDy=0;" parent="1" source="n7YBA3tUE_IjKKzlbOG0-2" target="n7YBA3tUE_IjKKzlbOG0-3" edge="1">
          <mxGeometry relative="1" as="geometry" />
        </mxCell>
        <mxCell id="n7YBA3tUE_IjKKzlbOG0-2" value="记录起始位置" style="rounded=0;whiteSpace=wrap;html=1;" parent="1" vertex="1">
          <mxGeometry x="70" y="430" width="120" height="60" as="geometry" />
        </mxCell>
        <mxCell id="n7YBA3tUE_IjKKzlbOG0-63" style="edgeStyle=orthogonalEdgeStyle;rounded=0;orthogonalLoop=1;jettySize=auto;html=1;exitX=0.5;exitY=1;exitDx=0;exitDy=0;" parent="1" source="n7YBA3tUE_IjKKzlbOG0-3" target="n7YBA3tUE_IjKKzlbOG0-10" edge="1">
          <mxGeometry relative="1" as="geometry" />
        </mxCell>
        <mxCell id="n7YBA3tUE_IjKKzlbOG0-3" value="修改拖拽标识为False" style="rounded=0;whiteSpace=wrap;html=1;" parent="1" vertex="1">
          <mxGeometry x="70" y="530" width="120" height="60" as="geometry" />
        </mxCell>
        <mxCell id="n7YBA3tUE_IjKKzlbOG0-5" style="edgeStyle=orthogonalEdgeStyle;rounded=0;orthogonalLoop=1;jettySize=auto;html=1;exitX=0.5;exitY=1;exitDx=0;exitDy=0;entryX=0.5;entryY=0;entryDx=0;entryDy=0;" parent="1" source="n7YBA3tUE_IjKKzlbOG0-4" target="n7YBA3tUE_IjKKzlbOG0-1" edge="1">
          <mxGeometry relative="1" as="geometry" />
        </mxCell>
        <mxCell id="n7YBA3tUE_IjKKzlbOG0-31" style="edgeStyle=orthogonalEdgeStyle;rounded=0;orthogonalLoop=1;jettySize=auto;html=1;exitX=0;exitY=0.5;exitDx=0;exitDy=0;entryX=1;entryY=0.5;entryDx=0;entryDy=0;" parent="1" source="n7YBA3tUE_IjKKzlbOG0-4" edge="1">
          <mxGeometry relative="1" as="geometry">
            <mxPoint x="10" y="260" as="targetPoint" />
          </mxGeometry>
        </mxCell>
        <mxCell id="n7YBA3tUE_IjKKzlbOG0-4" value="第二步标识" style="rhombus;whiteSpace=wrap;html=1;" parent="1" vertex="1">
          <mxGeometry x="90" y="220" width="80" height="80" as="geometry" />
        </mxCell>
        <mxCell id="n7YBA3tUE_IjKKzlbOG0-6" value="F" style="text;html=1;align=center;verticalAlign=middle;resizable=0;points=[];autosize=1;strokeColor=none;fillColor=none;" parent="1" vertex="1">
          <mxGeometry x="125" y="288" width="30" height="30" as="geometry" />
        </mxCell>
        <mxCell id="n7YBA3tUE_IjKKzlbOG0-14" style="edgeStyle=orthogonalEdgeStyle;rounded=0;orthogonalLoop=1;jettySize=auto;html=1;exitX=1;exitY=0.5;exitDx=0;exitDy=0;entryX=0;entryY=0.5;entryDx=0;entryDy=0;" parent="1" source="n7YBA3tUE_IjKKzlbOG0-10" edge="1">
          <mxGeometry relative="1" as="geometry">
            <mxPoint x="250" y="760" as="targetPoint" />
          </mxGeometry>
        </mxCell>
        <mxCell id="n7YBA3tUE_IjKKzlbOG0-10" value="隐藏弹窗" style="rounded=0;whiteSpace=wrap;html=1;" parent="1" vertex="1">
          <mxGeometry x="70" y="730" width="120" height="60" as="geometry" />
        </mxCell>
        <mxCell id="n7YBA3tUE_IjKKzlbOG0-40" style="edgeStyle=orthogonalEdgeStyle;rounded=0;orthogonalLoop=1;jettySize=auto;html=1;exitX=0.5;exitY=0;exitDx=0;exitDy=0;" parent="1" source="n7YBA3tUE_IjKKzlbOG0-16" target="n7YBA3tUE_IjKKzlbOG0-35" edge="1">
          <mxGeometry relative="1" as="geometry" />
        </mxCell>
        <mxCell id="n7YBA3tUE_IjKKzlbOG0-16" value="左键抬起" style="rhombus;whiteSpace=wrap;html=1;" parent="1" vertex="1">
          <mxGeometry x="250" y="720" width="80" height="80" as="geometry" />
        </mxCell>
        <mxCell id="n7YBA3tUE_IjKKzlbOG0-22" style="edgeStyle=orthogonalEdgeStyle;rounded=0;orthogonalLoop=1;jettySize=auto;html=1;exitX=0.5;exitY=1;exitDx=0;exitDy=0;entryX=0.5;entryY=0;entryDx=0;entryDy=0;" parent="1" source="n7YBA3tUE_IjKKzlbOG0-17" target="n7YBA3tUE_IjKKzlbOG0-19" edge="1">
          <mxGeometry relative="1" as="geometry" />
        </mxCell>
        <mxCell id="n7YBA3tUE_IjKKzlbOG0-17" value="移动" style="rounded=0;whiteSpace=wrap;html=1;" parent="1" vertex="1">
          <mxGeometry x="480" y="430" width="120" height="60" as="geometry" />
        </mxCell>
        <mxCell id="n7YBA3tUE_IjKKzlbOG0-23" style="edgeStyle=orthogonalEdgeStyle;rounded=0;orthogonalLoop=1;jettySize=auto;html=1;exitX=0.5;exitY=1;exitDx=0;exitDy=0;" parent="1" source="n7YBA3tUE_IjKKzlbOG0-19" target="n7YBA3tUE_IjKKzlbOG0-20" edge="1">
          <mxGeometry relative="1" as="geometry" />
        </mxCell>
        <mxCell id="n7YBA3tUE_IjKKzlbOG0-19" value="记录结束点" style="rounded=0;whiteSpace=wrap;html=1;" parent="1" vertex="1">
          <mxGeometry x="480" y="530" width="120" height="60" as="geometry" />
        </mxCell>
        <mxCell id="n7YBA3tUE_IjKKzlbOG0-71" style="edgeStyle=orthogonalEdgeStyle;rounded=0;orthogonalLoop=1;jettySize=auto;html=1;exitX=0.5;exitY=1;exitDx=0;exitDy=0;entryX=1;entryY=0.5;entryDx=0;entryDy=0;" parent="1" source="n7YBA3tUE_IjKKzlbOG0-20" target="n7YBA3tUE_IjKKzlbOG0-16" edge="1">
          <mxGeometry relative="1" as="geometry" />
        </mxCell>
        <mxCell id="n7YBA3tUE_IjKKzlbOG0-20" value="计算截图矩形" style="rounded=0;whiteSpace=wrap;html=1;" parent="1" vertex="1">
          <mxGeometry x="480" y="630" width="120" height="60" as="geometry" />
        </mxCell>
        <mxCell id="n7YBA3tUE_IjKKzlbOG0-26" value="F" style="text;html=1;align=center;verticalAlign=middle;resizable=0;points=[];autosize=1;strokeColor=none;fillColor=none;" parent="1" vertex="1">
          <mxGeometry x="300" y="790" width="30" height="30" as="geometry" />
        </mxCell>
        <mxCell id="n7YBA3tUE_IjKKzlbOG0-32" value="T" style="text;html=1;align=center;verticalAlign=middle;resizable=0;points=[];autosize=1;strokeColor=none;fillColor=none;" parent="1" vertex="1">
          <mxGeometry x="65" y="228" width="30" height="30" as="geometry" />
        </mxCell>
        <mxCell id="n7YBA3tUE_IjKKzlbOG0-33" value="T" style="text;html=1;align=center;verticalAlign=middle;resizable=0;points=[];autosize=1;strokeColor=none;fillColor=none;" parent="1" vertex="1">
          <mxGeometry x="300" y="700" width="30" height="30" as="geometry" />
        </mxCell>
        <mxCell id="n7YBA3tUE_IjKKzlbOG0-41" style="edgeStyle=orthogonalEdgeStyle;rounded=0;orthogonalLoop=1;jettySize=auto;html=1;exitX=0.5;exitY=0;exitDx=0;exitDy=0;" parent="1" source="n7YBA3tUE_IjKKzlbOG0-35" target="n7YBA3tUE_IjKKzlbOG0-38" edge="1">
          <mxGeometry relative="1" as="geometry" />
        </mxCell>
        <mxCell id="n7YBA3tUE_IjKKzlbOG0-35" value="修改第二步标识 true" style="rounded=0;whiteSpace=wrap;html=1;" parent="1" vertex="1">
          <mxGeometry x="230" y="630" width="120" height="60" as="geometry" />
        </mxCell>
        <mxCell id="n7YBA3tUE_IjKKzlbOG0-36" style="edgeStyle=orthogonalEdgeStyle;rounded=0;orthogonalLoop=1;jettySize=auto;html=1;exitX=0.5;exitY=1;exitDx=0;exitDy=0;entryX=0.992;entryY=0.367;entryDx=0;entryDy=0;entryPerimeter=0;" parent="1" source="n7YBA3tUE_IjKKzlbOG0-16" target="n7YBA3tUE_IjKKzlbOG0-17" edge="1">
          <mxGeometry relative="1" as="geometry" />
        </mxCell>
        <mxCell id="n7YBA3tUE_IjKKzlbOG0-42" style="edgeStyle=orthogonalEdgeStyle;rounded=0;orthogonalLoop=1;jettySize=auto;html=1;exitX=0.5;exitY=0;exitDx=0;exitDy=0;entryX=0.5;entryY=1;entryDx=0;entryDy=0;" parent="1" source="n7YBA3tUE_IjKKzlbOG0-38" target="n7YBA3tUE_IjKKzlbOG0-39" edge="1">
          <mxGeometry relative="1" as="geometry">
            <mxPoint x="290" y="510" as="targetPoint" />
          </mxGeometry>
        </mxCell>
        <mxCell id="n7YBA3tUE_IjKKzlbOG0-38" value="记录结束坐标，计算截图矩形" style="rounded=0;whiteSpace=wrap;html=1;" parent="1" vertex="1">
          <mxGeometry x="230" y="525" width="120" height="60" as="geometry" />
        </mxCell>
        <mxCell id="n7YBA3tUE_IjKKzlbOG0-43" style="edgeStyle=orthogonalEdgeStyle;rounded=0;orthogonalLoop=1;jettySize=auto;html=1;exitX=0.5;exitY=0;exitDx=0;exitDy=0;entryX=1;entryY=0.5;entryDx=0;entryDy=0;" parent="1" source="n7YBA3tUE_IjKKzlbOG0-39" target="n7YBA3tUE_IjKKzlbOG0-64" edge="1">
          <mxGeometry relative="1" as="geometry" />
        </mxCell>
        <mxCell id="n7YBA3tUE_IjKKzlbOG0-39" value="弹窗" style="rounded=0;whiteSpace=wrap;html=1;" parent="1" vertex="1">
          <mxGeometry x="230" y="330" width="120" height="60" as="geometry" />
        </mxCell>
        <mxCell id="n7YBA3tUE_IjKKzlbOG0-65" value="" style="edgeStyle=orthogonalEdgeStyle;rounded=0;orthogonalLoop=1;jettySize=auto;html=1;exitX=0.5;exitY=1;exitDx=0;exitDy=0;entryX=0.5;entryY=0;entryDx=0;entryDy=0;" parent="1" source="Xr6l-xtnLtzktArldmb--4" target="n7YBA3tUE_IjKKzlbOG0-64" edge="1">
          <mxGeometry relative="1" as="geometry">
            <mxPoint x="130" y="50" as="sourcePoint" />
            <mxPoint x="130" y="220" as="targetPoint" />
          </mxGeometry>
        </mxCell>
        <mxCell id="n7YBA3tUE_IjKKzlbOG0-64" value="是否点击了弹窗，关闭或者保存" style="rhombus;whiteSpace=wrap;html=1;" parent="1" vertex="1">
          <mxGeometry x="90" y="100" width="80" height="80" as="geometry" />
        </mxCell>
        <mxCell id="n7YBA3tUE_IjKKzlbOG0-66" value="F" style="text;html=1;align=center;verticalAlign=middle;resizable=0;points=[];autosize=1;strokeColor=none;fillColor=none;" parent="1" vertex="1">
          <mxGeometry x="105" y="178" width="30" height="30" as="geometry" />
        </mxCell>
        <mxCell id="n7YBA3tUE_IjKKzlbOG0-67" value="保存文件关闭截图工具" style="rounded=1;whiteSpace=wrap;html=1;" parent="1" vertex="1">
          <mxGeometry x="-110" y="110" width="120" height="60" as="geometry" />
        </mxCell>
        <mxCell id="n7YBA3tUE_IjKKzlbOG0-68" style="edgeStyle=orthogonalEdgeStyle;rounded=0;orthogonalLoop=1;jettySize=auto;html=1;exitX=0;exitY=0.5;exitDx=0;exitDy=0;entryX=1;entryY=0.5;entryDx=0;entryDy=0;" parent="1" source="n7YBA3tUE_IjKKzlbOG0-64" target="n7YBA3tUE_IjKKzlbOG0-67" edge="1">
          <mxGeometry relative="1" as="geometry">
            <mxPoint x="20" y="140" as="targetPoint" />
          </mxGeometry>
        </mxCell>
        <mxCell id="n7YBA3tUE_IjKKzlbOG0-69" value="T" style="text;html=1;align=center;verticalAlign=middle;resizable=0;points=[];autosize=1;strokeColor=none;fillColor=none;" parent="1" vertex="1">
          <mxGeometry x="55" y="108" width="30" height="30" as="geometry" />
        </mxCell>
        <mxCell id="n7YBA3tUE_IjKKzlbOG0-89" style="edgeStyle=orthogonalEdgeStyle;rounded=0;orthogonalLoop=1;jettySize=auto;html=1;exitX=0.5;exitY=1;exitDx=0;exitDy=0;entryX=0.5;entryY=0;entryDx=0;entryDy=0;" parent="1" source="n7YBA3tUE_IjKKzlbOG0-74" target="n7YBA3tUE_IjKKzlbOG0-76" edge="1">
          <mxGeometry relative="1" as="geometry" />
        </mxCell>
        <mxCell id="n7YBA3tUE_IjKKzlbOG0-74" value="移动" style="rounded=0;whiteSpace=wrap;html=1;" parent="1" vertex="1">
          <mxGeometry x="-110" y="230" width="120" height="60" as="geometry" />
        </mxCell>
        <mxCell id="n7YBA3tUE_IjKKzlbOG0-90" style="edgeStyle=orthogonalEdgeStyle;rounded=0;orthogonalLoop=1;jettySize=auto;html=1;exitX=0.5;exitY=1;exitDx=0;exitDy=0;" parent="1" source="n7YBA3tUE_IjKKzlbOG0-76" target="n7YBA3tUE_IjKKzlbOG0-78" edge="1">
          <mxGeometry relative="1" as="geometry" />
        </mxCell>
        <mxCell id="n7YBA3tUE_IjKKzlbOG0-76" value="根据位置修改鼠标状态" style="rounded=0;whiteSpace=wrap;html=1;" parent="1" vertex="1">
          <mxGeometry x="-110" y="330" width="120" height="60" as="geometry" />
        </mxCell>
        <mxCell id="n7YBA3tUE_IjKKzlbOG0-93" style="edgeStyle=orthogonalEdgeStyle;rounded=0;orthogonalLoop=1;jettySize=auto;html=1;exitX=0;exitY=0.5;exitDx=0;exitDy=0;entryX=0;entryY=0.5;entryDx=0;entryDy=0;" parent="1" source="n7YBA3tUE_IjKKzlbOG0-78" target="n7YBA3tUE_IjKKzlbOG0-76" edge="1">
          <mxGeometry relative="1" as="geometry" />
        </mxCell>
        <mxCell id="n7YBA3tUE_IjKKzlbOG0-94" style="edgeStyle=orthogonalEdgeStyle;rounded=0;orthogonalLoop=1;jettySize=auto;html=1;exitX=0.5;exitY=1;exitDx=0;exitDy=0;" parent="1" source="n7YBA3tUE_IjKKzlbOG0-78" target="n7YBA3tUE_IjKKzlbOG0-91" edge="1">
          <mxGeometry relative="1" as="geometry" />
        </mxCell>
        <mxCell id="n7YBA3tUE_IjKKzlbOG0-78" value="是否拖拽" style="rhombus;whiteSpace=wrap;html=1;" parent="1" vertex="1">
          <mxGeometry x="-90" y="430" width="80" height="80" as="geometry" />
        </mxCell>
        <mxCell id="n7YBA3tUE_IjKKzlbOG0-96" style="edgeStyle=orthogonalEdgeStyle;rounded=0;orthogonalLoop=1;jettySize=auto;html=1;exitX=0.5;exitY=1;exitDx=0;exitDy=0;entryX=0.5;entryY=0;entryDx=0;entryDy=0;" parent="1" source="n7YBA3tUE_IjKKzlbOG0-91" target="n7YBA3tUE_IjKKzlbOG0-95" edge="1">
          <mxGeometry relative="1" as="geometry" />
        </mxCell>
        <mxCell id="n7YBA3tUE_IjKKzlbOG0-91" value="移动：修改矩形大小" style="rounded=0;whiteSpace=wrap;html=1;" parent="1" vertex="1">
          <mxGeometry x="-110" y="555" width="120" height="60" as="geometry" />
        </mxCell>
        <mxCell id="n7YBA3tUE_IjKKzlbOG0-97" style="edgeStyle=orthogonalEdgeStyle;rounded=0;orthogonalLoop=1;jettySize=auto;html=1;exitX=0;exitY=0.5;exitDx=0;exitDy=0;" parent="1" source="n7YBA3tUE_IjKKzlbOG0-95" edge="1">
          <mxGeometry relative="1" as="geometry">
            <mxPoint x="130" y="70" as="targetPoint" />
            <Array as="points">
              <mxPoint x="-200" y="690" />
              <mxPoint x="-200" y="70" />
            </Array>
          </mxGeometry>
        </mxCell>
        <mxCell id="n7YBA3tUE_IjKKzlbOG0-95" value="拖拽结束" style="rhombus;whiteSpace=wrap;html=1;" parent="1" vertex="1">
          <mxGeometry x="-90" y="650" width="80" height="80" as="geometry" />
        </mxCell>
        <mxCell id="n7YBA3tUE_IjKKzlbOG0-98" value="拖拽标识为true" style="rounded=0;whiteSpace=wrap;html=1;" parent="1" vertex="1">
          <mxGeometry x="230" y="430" width="120" height="60" as="geometry" />
        </mxCell>
      </root>
    </mxGraphModel>
  </diagram>
</mxfile>
